<svg version="1.1" id="Layer_1" xmlns="http://www.w3.org/2000/svg" xmlns:xlink="http://www.w3.org/1999/xlink" x="0px" y="0px"
	 width="100%" viewBox="0 0 1024 400" enable-background="new 0 0 1024 400" xml:space="preserve">
<path fill="#000000" opacity="1.000000" stroke="none" 
	d="
M133.642303,256.350861 
	C130.398834,252.742203 127.264984,249.499496 124.431816,246.012482 
	C118.996536,239.322861 119.337029,234.681198 126.307320,229.500717 
	C139.943314,219.366089 153.842468,209.585571 167.629150,199.653580 
	C170.062027,197.900940 172.465118,196.106842 174.905945,194.365463 
	C176.404495,193.296356 178.006363,192.894562 179.346039,194.520218 
	C180.645615,196.097214 179.494644,197.386673 178.426376,198.416046 
	C176.874527,199.911346 175.231552,201.340469 173.485580,202.601395 
	C159.711090,212.549301 145.840103,222.364883 132.137665,232.410599 
	C127.083771,236.115814 126.670837,239.262177 130.623276,243.701569 
	C145.243759,260.123230 161.193298,275.243073 177.878342,291.837128 
	C177.390732,285.198639 176.886887,279.883179 177.477982,274.513550 
	C181.727463,235.909622 216.142685,198.467087 254.209351,192.229813 
	C267.286194,190.087143 278.484222,194.880798 286.694336,205.608185 
	C287.874756,207.150543 288.589508,209.115158 289.226379,210.984329 
	C289.644653,212.212006 289.726227,213.752014 288.273468,214.541397 
	C286.600311,215.450500 285.960815,214.008896 285.156952,212.961304 
	C273.505219,197.777222 263.609314,194.578323 244.485840,200.626968 
	C207.978241,212.174103 180.474518,254.485565 183.264084,286.963715 
	C183.952820,294.982605 186.621918,302.278961 191.463074,308.614777 
	C198.418320,317.717377 208.141647,318.374237 218.183456,315.938843 
	C236.901825,311.399139 252.570282,301.024231 267.319244,289.092987 
	C268.995728,287.736816 270.593048,286.277588 272.157043,284.792358 
	C272.451111,284.513092 272.412354,283.883331 272.540070,283.362732 
	C270.938538,281.389008 268.787964,281.507355 266.615814,281.564545 
	C259.807434,281.743866 253.352966,280.487640 247.596085,276.624786 
	C246.081528,275.608521 244.188385,274.529175 245.235596,272.307739 
	C246.352127,269.939301 248.297974,270.941986 249.960526,271.730377 
	C268.832153,280.679169 284.477448,275.518433 298.978088,261.679382 
	C332.151703,230.019272 362.491730,195.636902 394.684998,163.044373 
	C406.273804,151.311844 418.175476,139.871948 430.995758,129.473251 
	C434.274078,126.814171 438.124603,122.073555 442.661774,125.927155 
	C446.868164,129.499756 444.284698,134.720474 442.466339,138.911575 
	C435.234955,155.578766 426.546906,171.533569 418.137970,187.620193 
	C412.578796,198.255051 407.439880,209.084122 402.835938,220.162109 
	C402.043243,222.069443 400.431732,224.171982 402.005707,226.258041 
	C403.601410,228.372925 405.917297,227.368027 408.033691,226.975784 
	C412.586670,226.131927 416.962463,227.424057 421.345001,228.306320 
	C423.027985,228.645111 424.578369,229.662109 424.080231,231.795029 
	C423.533447,234.136200 421.737396,234.316360 419.753296,233.863937 
	C417.967957,233.456848 416.202118,232.950211 414.403870,232.615570 
	C404.943787,230.855148 397.468018,233.799713 393.807129,241.826294 
	C384.341248,262.580414 375.017639,283.443146 370.932861,306.106506 
	C370.112427,310.658508 370.314667,315.390930 369.970398,320.034607 
	C369.838348,321.816162 369.940735,324.116791 367.286926,323.952087 
	C364.881348,323.802795 364.848053,321.690491 364.662079,319.813080 
	C363.085266,303.894165 367.954742,289.172668 373.270691,274.600922 
	C377.035400,264.281311 381.339996,254.159058 385.364899,243.933487 
	C385.949341,242.448669 387.341827,240.867752 386.035187,239.280212 
	C384.596191,237.531845 382.715607,238.452591 380.957855,238.997086 
	C371.533752,241.916229 362.691040,246.147461 353.888000,250.554199 
	C338.124725,258.445160 322.624725,266.850220 305.773926,272.481445 
	C290.550049,277.569031 277.883179,287.231720 265.575775,297.264679 
	C250.510513,309.545807 234.203094,319.039734 214.489136,321.834534 
	C199.823486,323.913635 188.116455,318.436462 182.428574,304.928192 
	C180.651718,300.708344 177.273193,299.178345 174.373138,296.650726 
	C163.185959,286.900330 152.435745,276.697540 142.407059,265.747223 
	C139.594070,262.675751 136.728928,259.652069 133.642303,256.350861 
M435.373047,138.931686 
	C435.706787,137.802170 436.195923,136.421234 434.963959,135.763321 
	C433.152008,134.795654 431.795532,136.226303 430.597717,137.323776 
	C416.358643,150.369965 402.236176,163.521896 388.766998,177.391251 
	C360.942627,206.042419 335.125214,236.661438 304.988098,263.054108 
	C303.729675,264.156158 301.826721,265.074005 302.129089,267.339722 
	C303.901031,268.442169 305.399353,267.418213 306.899475,266.840668 
	C315.604980,263.489075 324.086395,259.639282 332.385956,255.377747 
	C347.188049,247.777359 361.527222,238.790329 377.662964,234.573654 
	C388.107330,231.844299 393.423035,226.354294 397.252594,216.675827 
	C407.800751,190.017303 422.838409,165.484131 435.373047,138.931686 
z"/>
<path fill="#000000" opacity="1.000000" stroke="none" 
	d="
M620.909668,203.980743 
	C624.251587,196.713074 627.437317,189.788788 630.509216,183.111969 
	C629.059692,180.919174 627.252319,181.323471 625.674805,181.495972 
	C617.898254,182.346298 610.132751,183.319855 602.294373,183.331436 
	C600.317566,183.334351 598.835266,184.119736 597.413391,185.424438 
	C579.354065,201.995926 559.154785,215.376892 536.928772,225.679214 
	C532.892395,227.550201 530.280457,230.389740 528.737915,234.555573 
	C525.670776,242.838867 522.375916,251.060440 522.339111,260.067627 
	C522.290283,272.027588 529.647766,277.438904 541.135437,273.728851 
	C551.433044,270.403137 560.188293,264.222046 568.619202,257.677338 
	C578.618164,249.915298 588.359009,241.821121 598.242798,233.909760 
	C599.393738,232.988541 600.681274,232.182053 602.017578,231.565430 
	C603.162659,231.037048 604.343140,231.324554 605.033813,232.532608 
	C605.624878,233.566452 605.161804,234.452805 604.456970,235.239761 
	C604.124390,235.611160 603.781250,235.986542 603.387451,236.287750 
	C586.746521,249.016617 571.988770,264.221039 553.334473,274.308258 
	C549.659668,276.295410 545.930603,278.106140 541.936768,279.352478 
	C525.131042,284.596893 513.209106,274.192017 515.945129,256.773499 
	C517.321777,248.009338 519.775085,239.651917 523.329895,231.484406 
	C538.185425,197.352402 556.700806,165.502365 581.407227,137.500931 
	C590.105591,127.642494 598.847595,117.743896 610.181030,110.671959 
	C614.586548,107.922958 619.181274,105.571144 624.348206,104.670609 
	C635.258972,102.769028 641.054626,107.958176 640.157349,119.093185 
	C639.269104,130.116348 635.210571,140.110153 629.231628,149.314819 
	C624.506897,156.588516 619.162231,163.400711 613.185120,169.707703 
	C611.031128,171.980499 609.000488,174.370117 606.121948,177.592606 
	C615.282166,176.936783 623.382629,177.256500 631.295715,175.282516 
	C634.975464,174.364594 636.335876,171.125244 637.606323,168.031540 
	C641.662720,158.153717 646.387451,148.609451 651.658813,139.329590 
	C652.152283,138.460968 652.585510,137.554932 653.123535,136.715500 
	C654.249207,134.958908 655.831726,134.070007 657.766663,135.211823 
	C659.719482,136.364212 658.900574,138.030792 658.142395,139.584641 
	C653.834045,148.414062 649.514709,157.238190 645.250305,166.088852 
	C644.037720,168.605499 642.996399,171.204651 641.591431,174.418060 
	C648.484619,174.418060 654.689331,174.568512 660.882629,174.367676 
	C665.362488,174.222382 669.824219,173.573288 674.300049,173.225876 
	C676.034180,173.091278 677.829895,173.303741 678.085999,175.500534 
	C678.351929,177.781296 676.625183,178.223190 674.861816,178.381821 
	C664.257751,179.335663 653.656799,180.331360 643.043213,181.166229 
	C640.346130,181.378372 638.144775,181.978928 636.981567,184.661636 
	C628.175293,204.970901 617.527893,224.484634 610.541199,245.576401 
	C608.871887,250.615448 607.282532,255.700577 607.028687,261.102875 
	C606.509338,272.151917 615.576355,278.795807 625.955017,274.674866 
	C633.191956,271.801361 639.008972,266.697205 644.699646,261.566132 
	C653.744446,253.410675 661.890991,244.371140 669.918823,235.229279 
	C670.578308,234.478195 671.192139,233.686478 671.861938,232.945053 
	C673.104065,231.570053 674.635864,230.817154 676.238831,232.096375 
	C677.941650,233.455231 677.242432,235.142899 676.118896,236.499954 
	C672.828186,240.474533 669.538330,244.456360 666.085510,248.288818 
	C657.368591,257.964172 648.027283,266.951996 637.334106,274.487152 
	C630.210205,279.507111 622.614868,281.945801 613.832336,280.419830 
	C607.812256,279.373871 604.212891,276.555725 602.733948,270.520020 
	C600.096191,259.755463 601.802979,249.280533 605.833130,239.232239 
	C610.542542,227.490311 615.757751,215.951202 620.909668,203.980743 
M598.454956,177.412430 
	C615.131165,162.899445 627.589050,145.549179 634.205566,124.268509 
	C634.910522,122.001381 635.009583,119.665527 634.773010,117.345230 
	C634.177734,111.506363 629.451233,108.420898 624.095642,110.666435 
	C617.799438,113.306328 611.826843,116.512817 606.646057,121.162933 
	C577.071106,147.708221 554.698242,179.463654 538.078369,215.417221 
	C537.544434,216.572296 536.561768,217.636841 537.406250,219.738510 
	C557.348328,211.122635 574.527771,198.565674 590.730225,184.600739 
	C588.876465,179.075928 589.396118,178.326584 595.221802,177.826904 
	C596.050964,177.755783 596.880798,177.691742 598.454956,177.412430 
z"/>
<path fill="#000000" opacity="1.000000" stroke="none" 
	d="
M468.038086,244.712280 
	C461.678406,253.602463 453.288696,257.943817 442.773254,258.235840 
	C440.457336,258.300140 437.846252,257.894623 436.676422,260.556763 
	C435.393402,263.476501 436.356842,266.220001 438.438232,268.369293 
	C443.719666,273.822968 450.221130,274.903259 457.291016,272.909607 
	C469.024689,269.600891 479.428375,263.705109 488.577637,255.742996 
	C496.741302,248.638596 504.578278,241.159332 512.587585,233.876450 
	C513.894714,232.687851 515.306030,230.877197 517.221436,232.783569 
	C519.022949,234.576675 517.641785,236.207535 516.366211,237.535126 
	C500.953613,253.576431 485.098297,269.008850 463.459625,276.666443 
	C458.515930,278.415924 453.503387,279.454163 448.293976,279.050354 
	C433.913055,277.935516 427.644440,269.645813 430.934631,255.671082 
	C433.509125,244.736115 439.535797,235.882584 448.711090,229.327377 
	C452.163422,226.860901 456.074707,225.256348 460.423309,225.915283 
	C470.075897,227.377930 472.818146,233.981720 468.038086,244.712280 
M464.086090,234.397079 
	C461.866486,231.604446 458.727295,231.412781 455.955902,232.583115 
	C449.495361,235.311371 444.769897,240.158432 441.593079,246.390823 
	C440.751740,248.041458 440.773804,249.976089 442.382538,251.423737 
	C444.197144,253.056641 446.397339,253.027298 448.476196,252.347321 
	C453.610657,250.667847 458.051422,247.814270 461.515656,243.630203 
	C463.539978,241.185272 465.347168,238.565186 464.086090,234.397079 
z"/>
<path fill="#000000" opacity="1.000000" stroke="none" 
	d="
M707.655212,271.602844 
	C700.645569,282.177917 693.911865,292.496826 687.828857,303.229004 
	C686.713867,305.196075 685.945496,308.937714 682.667480,306.944214 
	C679.413635,304.965363 681.908630,302.299225 683.245850,300.079987 
	C712.439331,251.631180 745.078003,205.612869 780.748413,161.725510 
	C784.737793,156.817139 788.298767,151.562469 792.213806,146.590759 
	C793.851257,144.511261 795.597778,140.644592 798.651733,142.741287 
	C802.333557,145.269043 798.624817,148.263062 797.094116,150.306824 
	C789.708069,160.168564 781.943237,169.745544 774.395569,179.487640 
	C751.235718,209.381302 728.517212,239.596680 707.655212,271.602844 
z"/>
<path fill="#000000" opacity="1.000000" stroke="none" 
	d="
M882.952515,224.058929 
	C873.082397,215.083084 863.477539,206.343765 853.877563,197.599182 
	C853.385925,197.151367 852.855835,196.714294 852.479736,196.176956 
	C851.376221,194.600632 849.406555,192.925995 851.342529,190.984146 
	C853.055847,189.265640 854.792114,190.826355 856.145142,192.014984 
	C868.652649,203.002136 881.226868,213.917435 893.542664,225.116501 
	C897.850037,229.033340 898.021545,234.129135 894.899048,239.180466 
	C894.118774,240.442719 893.166382,241.639130 892.115234,242.687531 
	C870.895752,263.851990 850.462280,285.796570 828.785461,306.507050 
	C827.298462,307.927704 825.595642,309.666840 823.687988,307.801208 
	C821.467773,305.629822 823.583801,303.946472 825.101074,302.400879 
	C843.647034,283.509155 862.193359,264.617737 880.740417,245.727112 
	C881.673584,244.776672 882.628845,243.847595 883.550110,242.885818 
	C891.777344,234.296051 891.745178,232.592606 882.952515,224.058929 
z"/>
</svg>